<svg xmlns="http://www.w3.org/2000/svg" xmlns:xlink="http://www.w3.org/1999/xlink" viewBox="0,0,256,256" width="64px" height="64px" fill-rule="nonzero"><g transform=""><g fill="none" fill-rule="nonzero" stroke="none" stroke-width="1" stroke-linecap="butt" stroke-linejoin="miter" stroke-miterlimit="10" stroke-dasharray="" stroke-dashoffset="0" font-family="none" font-weight="none" font-size="none" text-anchor="none" style="mix-blend-mode: normal"><g transform="scale(0.5,0.5)"><path d="M7.9,256c0,-137 111.1,-248.1 248.1,-248.1c137,0 248.1,111.1 248.1,248.1c0,137 -111.1,248.1 -248.1,248.1c-137,0 -248.1,-111.1 -248.1,-248.1z" fill="#445c73"></path><path d="M391.5,214.5h-94.5v-93.9c0,-4 -3.2,-7.2 -7.2,-7.2h-68.1c-4,0 -7.2,3.2 -7.2,7.2v93.9h-93.9c-4,0 -7.2,3.2 -7.2,7.2v69.2c0,4 3.2,7.2 7.2,7.2h93.9v93.4c0,4 3.2,7.2 7.2,7.2h68.1c4,0 7.2,-3.2 7.2,-7.2v-93.4h94.5c4,0 7.2,-3.2 7.2,-7.2v-69.2c0,-4 -3.3,-7.2 -7.2,-7.2z" fill="#ffffff"></path></g></g></g></svg>