<svg width="160" height="65" viewBox="0 0 160 65" fill="none" xmlns="http://www.w3.org/2000/svg">
<g filter="url(#filter0_d_32_12)">
<path d="M129.234 48.5625V42.1172L132.797 42.1641C133.422 42.1641 134.023 42.0625 134.602 41.8594C135.18 41.6562 135.711 41.375 136.195 41.0156C136.695 40.6562 137.133 40.2266 137.508 39.7266C137.883 39.2422 138.188 38.7109 138.422 38.1328C137.719 38.4297 137 38.7266 136.266 39.0234C135.547 39.3203 134.82 39.4688 134.086 39.4688C132.539 39.4688 131.086 39.1953 129.727 38.6484C128.367 38.1016 127.172 37.3281 126.141 36.3281C125.125 35.3125 124.32 34.0859 123.727 32.6484C123.148 31.1953 122.859 29.5703 122.859 27.7734V13.8984H129.234V27.7734C129.234 28.6641 129.359 29.4453 129.609 30.1172C129.875 30.7734 130.227 31.3281 130.664 31.7812C131.102 32.2188 131.609 32.5469 132.188 32.7656C132.781 32.9844 133.414 33.0938 134.086 33.0938C134.742 33.0938 135.359 32.9453 135.938 32.6484C136.531 32.3359 137.047 31.9297 137.484 31.4297C137.922 30.9297 138.266 30.3672 138.516 29.7422C138.766 29.1016 138.891 28.4453 138.891 27.7734V13.8984H145.336V35.8359C145.32 37.6016 144.977 39.2578 144.305 40.8047C143.633 42.3516 142.711 43.7031 141.539 44.8594C140.383 46.0156 139.031 46.9297 137.484 47.6016C135.938 48.2734 134.281 48.6094 132.516 48.6094L129.234 48.5625Z" fill="#424242"/>
</g>
<g filter="url(#filter1_d_32_12)">
<path d="M100.383 48.5625H93.9375V13.8984H95.4844L98.0391 16.9219C98.6172 16.375 99.25 15.8594 99.9375 15.375C100.625 14.8906 101.336 14.4766 102.07 14.1328C102.82 13.7734 103.594 13.4922 104.391 13.2891C105.188 13.0859 105.992 12.9844 106.805 12.9844C108.57 12.9844 110.227 13.3047 111.773 13.9453C113.336 14.5703 114.695 15.4609 115.852 16.6172C117.023 17.7734 117.945 19.1719 118.617 20.8125C119.289 22.4375 119.625 24.2422 119.625 26.2266C119.625 28.2891 119.289 30.1484 118.617 31.8047C117.945 33.4453 117.023 34.8438 115.852 36C114.695 37.1406 113.336 38.0156 111.773 38.625C110.227 39.2344 108.57 39.5391 106.805 39.5391C106.242 39.5391 105.68 39.4766 105.117 39.3516C104.57 39.2266 104.023 39.0625 103.477 38.8594C102.945 38.6406 102.414 38.3984 101.883 38.1328C101.367 37.8672 100.867 37.5938 100.383 37.3125V48.5625ZM113.203 26.2266C113.203 25.1641 113.031 24.2109 112.688 23.3672C112.359 22.5234 111.906 21.8125 111.328 21.2344C110.75 20.6406 110.07 20.1875 109.289 19.875C108.508 19.5625 107.68 19.4062 106.805 19.4062C105.93 19.4062 105.102 19.5625 104.32 19.875C103.555 20.1875 102.883 20.6406 102.305 21.2344C101.727 21.8125 101.266 22.5234 100.922 23.3672C100.594 24.2109 100.43 25.1641 100.43 26.2266C100.43 27.2422 100.594 28.1719 100.922 29.0156C101.266 29.8594 101.727 30.5781 102.305 31.1719C102.883 31.7656 103.555 32.2266 104.32 32.5547C105.102 32.8828 105.93 33.0469 106.805 33.0469C107.68 33.0469 108.508 32.8828 109.289 32.5547C110.07 32.2266 110.75 31.7656 111.328 31.1719C111.906 30.5781 112.359 29.8594 112.688 29.0156C113.031 28.1719 113.203 27.2422 113.203 26.2266Z" fill="#424242"/>
</g>
<g filter="url(#filter2_d_32_12)">
<path d="M78.7031 32.8594C78.9531 32.9375 79.2031 32.9922 79.4531 33.0234C79.7031 33.0391 79.9531 33.0469 80.2031 33.0469C80.8281 33.0469 81.4297 32.9609 82.0078 32.7891C82.5859 32.6172 83.125 32.375 83.625 32.0625C84.1406 31.7344 84.5938 31.3438 84.9844 30.8906C85.3906 30.4219 85.7188 29.9062 85.9688 29.3438L90.6562 34.0547C90.0625 34.8984 89.375 35.6562 88.5938 36.3281C87.8281 37 86.9922 37.5703 86.0859 38.0391C85.1953 38.5078 84.25 38.8594 83.25 39.0938C82.2656 39.3438 81.25 39.4688 80.2031 39.4688C78.4375 39.4688 76.7734 39.1406 75.2109 38.4844C73.6641 37.8281 72.3047 36.9141 71.1328 35.7422C69.9766 34.5703 69.0625 33.1797 68.3906 31.5703C67.7188 29.9453 67.3828 28.1641 67.3828 26.2266C67.3828 24.2422 67.7188 22.4297 68.3906 20.7891C69.0625 19.1484 69.9766 17.75 71.1328 16.5938C72.3047 15.4375 73.6641 14.5391 75.2109 13.8984C76.7734 13.2578 78.4375 12.9375 80.2031 12.9375C81.25 12.9375 82.2734 13.0625 83.2734 13.3125C84.2734 13.5625 85.2188 13.9219 86.1094 14.3906C87.0156 14.8594 87.8594 15.4375 88.6406 16.125C89.4219 16.7969 90.1094 17.5547 90.7031 18.3984L78.7031 32.8594ZM81.9844 19.6641C81.6875 19.5547 81.3906 19.4844 81.0938 19.4531C80.8125 19.4219 80.5156 19.4062 80.2031 19.4062C79.3281 19.4062 78.5 19.5703 77.7188 19.8984C76.9531 20.2109 76.2812 20.6641 75.7031 21.2578C75.1406 21.8516 74.6953 22.5703 74.3672 23.4141C74.0391 24.2422 73.875 25.1797 73.875 26.2266C73.875 26.4609 73.8828 26.7266 73.8984 27.0234C73.9297 27.3203 73.9688 27.625 74.0156 27.9375C74.0781 28.2344 74.1484 28.5234 74.2266 28.8047C74.3047 29.0859 74.4062 29.3359 74.5312 29.5547L81.9844 19.6641Z" fill="#424242"/>
</g>
<g filter="url(#filter3_d_32_12)">
<path d="M53.6719 32.8594C53.9219 32.9375 54.1719 32.9922 54.4219 33.0234C54.6719 33.0391 54.9219 33.0469 55.1719 33.0469C55.7969 33.0469 56.3984 32.9609 56.9766 32.7891C57.5547 32.6172 58.0938 32.375 58.5938 32.0625C59.1094 31.7344 59.5625 31.3438 59.9531 30.8906C60.3594 30.4219 60.6875 29.9062 60.9375 29.3438L65.625 34.0547C65.0312 34.8984 64.3438 35.6562 63.5625 36.3281C62.7969 37 61.9609 37.5703 61.0547 38.0391C60.1641 38.5078 59.2188 38.8594 58.2188 39.0938C57.2344 39.3438 56.2188 39.4688 55.1719 39.4688C53.4062 39.4688 51.7422 39.1406 50.1797 38.4844C48.6328 37.8281 47.2734 36.9141 46.1016 35.7422C44.9453 34.5703 44.0312 33.1797 43.3594 31.5703C42.6875 29.9453 42.3516 28.1641 42.3516 26.2266C42.3516 24.2422 42.6875 22.4297 43.3594 20.7891C44.0312 19.1484 44.9453 17.75 46.1016 16.5938C47.2734 15.4375 48.6328 14.5391 50.1797 13.8984C51.7422 13.2578 53.4062 12.9375 55.1719 12.9375C56.2188 12.9375 57.2422 13.0625 58.2422 13.3125C59.2422 13.5625 60.1875 13.9219 61.0781 14.3906C61.9844 14.8594 62.8281 15.4375 63.6094 16.125C64.3906 16.7969 65.0781 17.5547 65.6719 18.3984L53.6719 32.8594ZM56.9531 19.6641C56.6562 19.5547 56.3594 19.4844 56.0625 19.4531C55.7812 19.4219 55.4844 19.4062 55.1719 19.4062C54.2969 19.4062 53.4688 19.5703 52.6875 19.8984C51.9219 20.2109 51.25 20.6641 50.6719 21.2578C50.1094 21.8516 49.6641 22.5703 49.3359 23.4141C49.0078 24.2422 48.8438 25.1797 48.8438 26.2266C48.8438 26.4609 48.8516 26.7266 48.8672 27.0234C48.8984 27.3203 48.9375 27.625 48.9844 27.9375C49.0469 28.2344 49.1172 28.5234 49.1953 28.8047C49.2734 29.0859 49.375 29.3359 49.5 29.5547L56.9531 19.6641Z" fill="#424242"/>
</g>
<g filter="url(#filter4_d_32_12)">
<path d="M20.8828 48.5625H14.4375V13.8984H15.9844L18.5391 16.9219C19.1172 16.375 19.75 15.8594 20.4375 15.375C21.125 14.8906 21.8359 14.4766 22.5703 14.1328C23.3203 13.7734 24.0938 13.4922 24.8906 13.2891C25.6875 13.0859 26.4922 12.9844 27.3047 12.9844C29.0703 12.9844 30.7266 13.3047 32.2734 13.9453C33.8359 14.5703 35.1953 15.4609 36.3516 16.6172C37.5234 17.7734 38.4453 19.1719 39.1172 20.8125C39.7891 22.4375 40.125 24.2422 40.125 26.2266C40.125 28.2891 39.7891 30.1484 39.1172 31.8047C38.4453 33.4453 37.5234 34.8438 36.3516 36C35.1953 37.1406 33.8359 38.0156 32.2734 38.625C30.7266 39.2344 29.0703 39.5391 27.3047 39.5391C26.7422 39.5391 26.1797 39.4766 25.6172 39.3516C25.0703 39.2266 24.5234 39.0625 23.9766 38.8594C23.4453 38.6406 22.9141 38.3984 22.3828 38.1328C21.8672 37.8672 21.3672 37.5938 20.8828 37.3125V48.5625ZM33.7031 26.2266C33.7031 25.1641 33.5312 24.2109 33.1875 23.3672C32.8594 22.5234 32.4062 21.8125 31.8281 21.2344C31.25 20.6406 30.5703 20.1875 29.7891 19.875C29.0078 19.5625 28.1797 19.4062 27.3047 19.4062C26.4297 19.4062 25.6016 19.5625 24.8203 19.875C24.0547 20.1875 23.3828 20.6406 22.8047 21.2344C22.2266 21.8125 21.7656 22.5234 21.4219 23.3672C21.0938 24.2109 20.9297 25.1641 20.9297 26.2266C20.9297 27.2422 21.0938 28.1719 21.4219 29.0156C21.7656 29.8594 22.2266 30.5781 22.8047 31.1719C23.3828 31.7656 24.0547 32.2266 24.8203 32.5547C25.6016 32.8828 26.4297 33.0469 27.3047 33.0469C28.1797 33.0469 29.0078 32.8828 29.7891 32.5547C30.5703 32.2266 31.25 31.7656 31.8281 31.1719C32.4062 30.5781 32.8594 29.8594 33.1875 29.0156C33.5312 28.1719 33.7031 27.2422 33.7031 26.2266Z" fill="#424242"/>
</g>
<defs>
<filter id="filter0_d_32_12" x="108.859" y="1.89844" width="50.4766" height="62.7109" filterUnits="userSpaceOnUse" color-interpolation-filters="sRGB">
<feFlood flood-opacity="0" result="BackgroundImageFix"/>
<feColorMatrix in="SourceAlpha" type="matrix" values="0 0 0 0 0 0 0 0 0 0 0 0 0 0 0 0 0 0 127 0" result="hardAlpha"/>
<feOffset dy="2"/>
<feGaussianBlur stdDeviation="7"/>
<feComposite in2="hardAlpha" operator="out"/>
<feColorMatrix type="matrix" values="0 0 0 0 0 0 0 0 0 0 0 0 0 0 0 0 0 0 0.25 0"/>
<feBlend mode="normal" in2="BackgroundImageFix" result="effect1_dropShadow_32_12"/>
<feBlend mode="normal" in="SourceGraphic" in2="effect1_dropShadow_32_12" result="shape"/>
</filter>
<filter id="filter1_d_32_12" x="79.9375" y="0.984375" width="53.6875" height="63.5781" filterUnits="userSpaceOnUse" color-interpolation-filters="sRGB">
<feFlood flood-opacity="0" result="BackgroundImageFix"/>
<feColorMatrix in="SourceAlpha" type="matrix" values="0 0 0 0 0 0 0 0 0 0 0 0 0 0 0 0 0 0 127 0" result="hardAlpha"/>
<feOffset dy="2"/>
<feGaussianBlur stdDeviation="7"/>
<feComposite in2="hardAlpha" operator="out"/>
<feColorMatrix type="matrix" values="0 0 0 0 0 0 0 0 0 0 0 0 0 0 0 0 0 0 0.25 0"/>
<feBlend mode="normal" in2="BackgroundImageFix" result="effect1_dropShadow_32_12"/>
<feBlend mode="normal" in="SourceGraphic" in2="effect1_dropShadow_32_12" result="shape"/>
</filter>
<filter id="filter2_d_32_12" x="53.3828" y="0.9375" width="51.3203" height="54.5312" filterUnits="userSpaceOnUse" color-interpolation-filters="sRGB">
<feFlood flood-opacity="0" result="BackgroundImageFix"/>
<feColorMatrix in="SourceAlpha" type="matrix" values="0 0 0 0 0 0 0 0 0 0 0 0 0 0 0 0 0 0 127 0" result="hardAlpha"/>
<feOffset dy="2"/>
<feGaussianBlur stdDeviation="7"/>
<feComposite in2="hardAlpha" operator="out"/>
<feColorMatrix type="matrix" values="0 0 0 0 0 0 0 0 0 0 0 0 0 0 0 0 0 0 0.25 0"/>
<feBlend mode="normal" in2="BackgroundImageFix" result="effect1_dropShadow_32_12"/>
<feBlend mode="normal" in="SourceGraphic" in2="effect1_dropShadow_32_12" result="shape"/>
</filter>
<filter id="filter3_d_32_12" x="28.3516" y="0.9375" width="51.3203" height="54.5312" filterUnits="userSpaceOnUse" color-interpolation-filters="sRGB">
<feFlood flood-opacity="0" result="BackgroundImageFix"/>
<feColorMatrix in="SourceAlpha" type="matrix" values="0 0 0 0 0 0 0 0 0 0 0 0 0 0 0 0 0 0 127 0" result="hardAlpha"/>
<feOffset dy="2"/>
<feGaussianBlur stdDeviation="7"/>
<feComposite in2="hardAlpha" operator="out"/>
<feColorMatrix type="matrix" values="0 0 0 0 0 0 0 0 0 0 0 0 0 0 0 0 0 0 0.25 0"/>
<feBlend mode="normal" in2="BackgroundImageFix" result="effect1_dropShadow_32_12"/>
<feBlend mode="normal" in="SourceGraphic" in2="effect1_dropShadow_32_12" result="shape"/>
</filter>
<filter id="filter4_d_32_12" x="0.4375" y="0.984375" width="53.6875" height="63.5781" filterUnits="userSpaceOnUse" color-interpolation-filters="sRGB">
<feFlood flood-opacity="0" result="BackgroundImageFix"/>
<feColorMatrix in="SourceAlpha" type="matrix" values="0 0 0 0 0 0 0 0 0 0 0 0 0 0 0 0 0 0 127 0" result="hardAlpha"/>
<feOffset dy="2"/>
<feGaussianBlur stdDeviation="7"/>
<feComposite in2="hardAlpha" operator="out"/>
<feColorMatrix type="matrix" values="0 0 0 0 0 0 0 0 0 0 0 0 0 0 0 0 0 0 0.25 0"/>
<feBlend mode="normal" in2="BackgroundImageFix" result="effect1_dropShadow_32_12"/>
<feBlend mode="normal" in="SourceGraphic" in2="effect1_dropShadow_32_12" result="shape"/>
</filter>
</defs>
</svg>
